<svg width="11" height="11" viewBox="0 0 11 11" fill="none" xmlns="http://www.w3.org/2000/svg">
<g id="icons/solid/ic-eva:more-vertical-fill">
<g id="primary-shape">
<path d="M5.49984 6.58333C5.96007 6.58333 6.33317 6.21024 6.33317 5.75C6.33317 5.28976 5.96007 4.91667 5.49984 4.91667C5.0396 4.91667 4.6665 5.28976 4.6665 5.75C4.6665 6.21024 5.0396 6.58333 5.49984 6.58333Z" fill="#637381"/>
<path d="M5.49984 3.66667C5.96007 3.66667 6.33317 3.29357 6.33317 2.83333C6.33317 2.3731 5.96007 2 5.49984 2C5.0396 2 4.6665 2.3731 4.6665 2.83333C4.6665 3.29357 5.0396 3.66667 5.49984 3.66667Z" fill="#637381"/>
<path d="M5.49984 9.5C5.96007 9.5 6.33317 9.1269 6.33317 8.66667C6.33317 8.20643 5.96007 7.83333 5.49984 7.83333C5.0396 7.83333 4.6665 8.20643 4.6665 8.66667C4.6665 9.1269 5.0396 9.5 5.49984 9.5Z" fill="#637381"/>
</g>
</g>
</svg>
