<svg xmlns="http://www.w3.org/2000/svg" width="13" height="13" viewBox="0 0 13 13" fill="none">
  <path d="M4.39088 10.871C4.60845 11.1461 4.8857 11.3682 5.20168 11.5205C5.51766 11.6728 5.86412 11.7512 6.21487 11.75C6.56563 11.7512 6.91209 11.6728 7.22807 11.5205C7.54405 11.3682 7.8213 11.1461 8.03887 10.871C6.82841 11.0351 5.60134 11.0351 4.39088 10.871Z" fill="#212B36"/>
  <path fill-rule="evenodd" clip-rule="evenodd" d="M9.58987 5.602V5.25C9.58987 3.317 8.07837 1.75 6.21487 1.75C4.35137 1.75 2.83987 3.317 2.83987 5.25V5.602C2.83987 6.0245 2.71987 6.4375 2.49387 6.789L1.93987 7.6505C1.43437 8.4375 1.82037 9.507 2.69987 9.7555C4.998 10.4065 7.43175 10.4065 9.72988 9.7555C10.6094 9.507 10.9954 8.4375 10.4899 7.6505L9.93587 6.789C9.70911 6.43467 9.58935 6.02268 9.58987 5.602ZM6.21487 3.375C6.31433 3.375 6.40971 3.41451 6.48004 3.48483C6.55037 3.55516 6.58987 3.65054 6.58987 3.75V5.75C6.58987 5.84946 6.55037 5.94484 6.48004 6.01516C6.40971 6.08549 6.31433 6.125 6.21487 6.125C6.11542 6.125 6.02004 6.08549 5.94971 6.01516C5.87938 5.94484 5.83987 5.84946 5.83987 5.75V3.75C5.83987 3.65054 5.87938 3.55516 5.94971 3.48483C6.02004 3.41451 6.11542 3.375 6.21487 3.375Z" fill="#212B36"/>
</svg>