<svg xmlns="http://www.w3.org/2000/svg" width="10" height="10" viewBox="0 0 10 10" fill="none">
  <path fill-rule="evenodd" clip-rule="evenodd" d="M5.0304 5.27822L7.15075 7.39872C7.22144 7.467 7.31612 7.50478 7.4144 7.50393C7.51267 7.50308 7.60668 7.46365 7.67618 7.39415C7.74567 7.32466 7.78509 7.23064 7.78594 7.13236C7.7868 7.03407 7.74902 6.93939 7.68074 6.86869L5.56039 4.74819L7.68074 2.62769C7.74902 2.55699 7.7868 2.4623 7.78594 2.36402C7.78509 2.26574 7.74567 2.17172 7.67618 2.10222C7.60668 2.03272 7.51267 1.9933 7.4144 1.99245C7.31612 1.99159 7.22144 2.02937 7.15075 2.09766L5.0304 4.21816L2.91005 2.09766C2.83904 2.03106 2.74491 1.99471 2.64757 1.99629C2.55024 1.99787 2.45734 2.03726 2.38853 2.10612C2.31972 2.17499 2.2804 2.26792 2.27888 2.36527C2.27737 2.46261 2.31379 2.55672 2.38043 2.62769L4.5004 4.74819L2.38005 6.86869C2.34425 6.90327 2.3157 6.94463 2.29606 6.99036C2.27641 7.0361 2.26607 7.08528 2.26564 7.13505C2.26521 7.18483 2.27469 7.23419 2.29354 7.28025C2.31238 7.32632 2.34021 7.36817 2.37541 7.40337C2.4106 7.43856 2.45245 7.4664 2.49851 7.48524C2.54458 7.50409 2.59393 7.51358 2.6437 7.51314C2.69347 7.51271 2.74265 7.50237 2.78838 7.48272C2.83411 7.46308 2.87547 7.43452 2.91005 7.39872L5.0304 5.27822Z" fill="#637381"/>
</svg>