  <svg
                  width="66"
                  height="13"
                  viewBox="0 0 66 13"
                  fill="none"
                  xmlns="http://www.w3.org/2000/svg"
                >
                  <path
                    d="M0.5 6.75C0.5 3.43629 3.18629 0.75 6.5 0.75H59.5C62.8137 0.75 65.5 3.43629 65.5 6.75C65.5 10.0637 62.8137 12.75 59.5 12.75H6.5C3.18629 12.75 0.5 10.0637 0.5 6.75Z"
                    fill="#00B8D9"
                    fill-opacity="0.16"
                  />
                  <path
                    d="M12.3533 9.74999C12.2999 9.7502 12.2474 9.73763 12.1999 9.71332L10.4999 8.82332L8.79992 9.71332C8.74472 9.74235 8.68248 9.75531 8.62028 9.75072C8.55808 9.74614 8.49841 9.72419 8.44806 9.68739C8.39771 9.65058 8.3587 9.60038 8.33546 9.54251C8.31222 9.48463 8.30568 9.42139 8.31659 9.35999L8.64992 7.48332L7.27659 6.14999C7.23374 6.10723 7.20334 6.05361 7.18866 5.99488C7.17398 5.93616 7.17557 5.87454 7.19325 5.81665C7.21257 5.75741 7.24811 5.70477 7.29584 5.66471C7.34356 5.62464 7.40156 5.59876 7.46325 5.58999L9.36325 5.31332L10.1999 3.60332C10.2272 3.54696 10.2698 3.49943 10.3229 3.46618C10.3759 3.43292 10.4373 3.41528 10.4999 3.41528C10.5625 3.41528 10.6239 3.43292 10.677 3.46618C10.73 3.49943 10.7726 3.54696 10.7999 3.60332L11.6466 5.30999L13.5466 5.58665C13.6083 5.59542 13.6663 5.62131 13.714 5.66137C13.7617 5.70144 13.7973 5.75408 13.8166 5.81332C13.8343 5.87121 13.8359 5.93283 13.8212 5.99155C13.8065 6.05028 13.7761 6.10389 13.7333 6.14665L12.3599 7.47999L12.6933 9.35665C12.7052 9.41915 12.6989 9.48374 12.6753 9.5428C12.6517 9.60187 12.6116 9.65294 12.5599 9.68999C12.4996 9.73229 12.4269 9.75339 12.3533 9.74999Z"
                    fill="#006C9C"
                  />
                  <path
                    d="M21.5236 10.75V2.926H23.7316C24.5316 2.926 25.2236 3.062 25.8076 3.334C26.3996 3.606 26.8556 4.03 27.1756 4.606C27.4956 5.174 27.6556 5.906 27.6556 6.802C27.6556 7.698 27.4956 8.438 27.1756 9.022C26.8556 9.606 26.4076 10.042 25.8316 10.33C25.2636 10.61 24.5996 10.75 23.8396 10.75H21.5236ZM23.2876 9.322H23.6236C24.0716 9.322 24.4596 9.242 24.7876 9.082C25.1236 8.922 25.3836 8.658 25.5676 8.29C25.7516 7.922 25.8436 7.426 25.8436 6.802C25.8436 6.178 25.7516 5.69 25.5676 5.338C25.3836 4.978 25.1236 4.726 24.7876 4.582C24.4596 4.43 24.0716 4.354 23.6236 4.354H23.2876V9.322ZM31.6608 10.894C31.0928 10.894 30.5808 10.77 30.1248 10.522C29.6688 10.274 29.3088 9.918 29.0448 9.454C28.7808 8.99 28.6488 8.43 28.6488 7.774C28.6488 7.126 28.7808 6.57 29.0448 6.106C29.3168 5.642 29.6688 5.286 30.1008 5.038C30.5328 4.782 30.9848 4.654 31.4568 4.654C32.0248 4.654 32.4968 4.782 32.8728 5.038C33.2488 5.286 33.5288 5.626 33.7128 6.058C33.8968 6.49 33.9888 6.974 33.9888 7.51C33.9888 7.662 33.9808 7.814 33.9648 7.966C33.9488 8.11 33.9328 8.226 33.9168 8.314H30.0168L29.9928 7.09H32.4768C32.4768 6.778 32.4008 6.522 32.2488 6.322C32.0968 6.114 31.8448 6.01 31.4928 6.01C31.3008 6.01 31.1128 6.062 30.9288 6.166C30.7448 6.27 30.5928 6.45 30.4728 6.706C30.3528 6.962 30.2968 7.318 30.3048 7.774C30.3128 8.222 30.3928 8.574 30.5448 8.83C30.7048 9.086 30.9048 9.27 31.1448 9.382C31.3848 9.486 31.6368 9.538 31.9008 9.538C32.1328 9.538 32.3528 9.506 32.5608 9.442C32.7768 9.37 32.9888 9.274 33.1968 9.154L33.7728 10.234C33.4768 10.442 33.1408 10.606 32.7648 10.726C32.3888 10.838 32.0208 10.894 31.6608 10.894ZM35.4491 10.75V4.486C35.4491 4.062 35.5171 3.678 35.6531 3.334C35.7971 2.99 36.0291 2.714 36.3491 2.506C36.6771 2.298 37.1091 2.194 37.6451 2.194C37.8931 2.194 38.1211 2.218 38.3291 2.266C38.5371 2.314 38.7051 2.362 38.8331 2.41L38.4851 3.67C38.2851 3.614 38.0891 3.586 37.8971 3.586C37.6811 3.586 37.5131 3.654 37.3931 3.79C37.2731 3.918 37.2131 4.134 37.2131 4.438V10.75H35.4491ZM34.5731 6.178V4.87L35.5691 4.798H38.2811V6.178H34.5731ZM40.5046 10.894C40.1446 10.894 39.8286 10.814 39.5566 10.654C39.2926 10.494 39.0886 10.278 38.9446 10.006C38.8006 9.734 38.7286 9.43 38.7286 9.094C38.7286 8.454 38.9926 7.962 39.5206 7.618C40.0486 7.266 40.9006 7.03 42.0766 6.91C42.0686 6.734 42.0286 6.586 41.9566 6.466C41.8926 6.338 41.7926 6.242 41.6566 6.178C41.5206 6.106 41.3486 6.07 41.1406 6.07C40.8926 6.07 40.6406 6.114 40.3846 6.202C40.1286 6.29 39.8526 6.418 39.5566 6.586L38.9326 5.434C39.1886 5.274 39.4526 5.138 39.7246 5.026C39.9966 4.906 40.2766 4.814 40.5646 4.75C40.8606 4.686 41.1646 4.654 41.4766 4.654C41.9886 4.654 42.4166 4.754 42.7606 4.954C43.1126 5.146 43.3806 5.442 43.5646 5.842C43.7486 6.234 43.8406 6.738 43.8406 7.354V10.75H42.4006L42.2806 10.138H42.2326C41.9766 10.362 41.7086 10.546 41.4286 10.69C41.1486 10.826 40.8406 10.894 40.5046 10.894ZM41.0926 9.514C41.2926 9.514 41.4686 9.47 41.6206 9.382C41.7726 9.294 41.9246 9.174 42.0766 9.022V8.014C41.6606 8.07 41.3286 8.142 41.0806 8.23C40.8406 8.318 40.6686 8.426 40.5646 8.554C40.4686 8.674 40.4206 8.81 40.4206 8.962C40.4206 9.146 40.4806 9.286 40.6006 9.382C40.7286 9.47 40.8926 9.514 41.0926 9.514ZM47.1207 10.894C46.4727 10.894 46.0007 10.682 45.7047 10.258C45.4167 9.826 45.2727 9.238 45.2727 8.494V4.798H47.0367V8.266C47.0367 8.698 47.0967 8.994 47.2167 9.154C47.3367 9.314 47.5247 9.394 47.7807 9.394C47.9967 9.394 48.1847 9.342 48.3447 9.238C48.5047 9.134 48.6687 8.966 48.8367 8.734V4.798H50.6007V10.75H49.1607L49.0287 9.922H48.9927C48.7447 10.218 48.4727 10.454 48.1767 10.63C47.8807 10.806 47.5287 10.894 47.1207 10.894ZM53.773 10.882C53.373 10.882 53.053 10.802 52.813 10.642C52.581 10.474 52.413 10.242 52.309 9.946C52.205 9.642 52.153 9.29 52.153 8.89V2.35H53.917V8.962C53.917 9.154 53.949 9.286 54.013 9.358C54.085 9.422 54.161 9.454 54.241 9.454C54.273 9.454 54.301 9.454 54.325 9.454C54.357 9.446 54.397 9.438 54.445 9.43L54.661 10.738C54.565 10.778 54.441 10.81 54.289 10.834C54.145 10.866 53.973 10.882 53.773 10.882ZM57.8786 10.882C57.1426 10.882 56.6146 10.67 56.2946 10.246C55.9746 9.814 55.8146 9.258 55.8146 8.578V6.178H55.0106V4.87L55.9226 4.798L56.1266 2.974H57.5906V4.798H59.0186V6.178H57.5906V8.554C57.5906 8.89 57.6586 9.134 57.7946 9.286C57.9386 9.43 58.1266 9.502 58.3586 9.502C58.4546 9.502 58.5506 9.494 58.6466 9.478C58.7426 9.462 58.8346 9.438 58.9226 9.406L59.2106 10.642C59.0586 10.706 58.8666 10.762 58.6346 10.81C58.4106 10.858 58.1586 10.882 57.8786 10.882Z"
                    fill="#006C9C"
                  />
                </svg>