<svg xmlns="http://www.w3.org/2000/svg" width="13" height="13" viewBox="0 0 13 13" fill="none">
  <path d="M1.71484 3.93812C1.71484 3.69612 1.88734 3.49962 2.10034 3.49962H3.43284C3.69734 3.49162 3.93084 3.30012 4.02084 3.01712L4.03584 2.96712L4.09334 2.77162C4.12834 2.65162 4.15884 2.54662 4.20184 2.45312C4.37084 2.08362 4.68384 1.82712 5.04534 1.76162C5.13734 1.74512 5.23434 1.74512 5.34534 1.74512H7.08434C7.19584 1.74512 7.29284 1.74512 7.38434 1.76162C7.74584 1.82712 8.05934 2.08362 8.22784 2.45312C8.27084 2.54662 8.30134 2.65112 8.33684 2.77162L8.39384 2.96712L8.40884 3.01712C8.49884 3.30012 8.77884 3.49212 9.04384 3.49962H10.3288C10.5423 3.49962 10.7148 3.69612 10.7148 3.93812C10.7148 4.18012 10.5423 4.37662 10.3293 4.37662H2.09984C1.88734 4.37662 1.71484 4.18012 1.71484 3.93812Z" fill="#212B36"/>
  <path fill-rule="evenodd" clip-rule="evenodd" d="M6.01284 11.7451H6.41684C7.80834 11.7451 8.50384 11.7451 8.95684 11.3021C9.40884 10.8591 9.45484 10.1326 9.54734 8.67962L9.68084 6.58562C9.73084 5.79712 9.75584 5.40262 9.52934 5.15312C9.30234 4.90312 8.91934 4.90312 8.15284 4.90312H4.27684C3.51034 4.90312 3.12684 4.90312 2.90034 5.15312C2.67334 5.40312 2.69834 5.79712 2.74884 6.58562L2.88234 8.67962C2.97484 10.1326 3.02084 10.8596 3.47334 11.3021C3.92584 11.7451 4.62134 11.7451 6.01284 11.7451ZM5.33784 6.83962C5.31784 6.62262 5.13384 6.46462 4.92784 6.48612C4.72134 6.50762 4.57134 6.70112 4.59184 6.91812L4.84184 9.54962C4.86184 9.76662 5.04584 9.92462 5.25184 9.90312C5.45834 9.88162 5.60834 9.68812 5.58784 9.47112L5.33784 6.83962ZM7.50234 6.48612C7.70834 6.50762 7.85884 6.70112 7.83784 6.91812L7.58784 9.54962C7.56784 9.76662 7.38334 9.92462 7.17784 9.90312C6.97134 9.88162 6.82134 9.68812 6.84184 9.47112L7.09184 6.83962C7.11184 6.62262 7.29684 6.46462 7.50234 6.48612Z" fill="#212B36"/>
</svg>