<!-- public/new.svg -->
<svg xmlns="http://www.w3.org/2000/svg" width="9" height="10" viewBox="0 0 9 10" fill="none">
  <path d="M4.125 7.75C4.125 7.84946 4.16451 7.94484 4.23484 8.01517C4.30516 8.08549 4.40054 8.125 4.5 8.125C4.59946 8.125 4.69484 8.08549 4.76516 8.01517C4.83549 7.94484 4.875 7.84946 4.875 7.75V5.125H7.5C7.59946 5.125 7.69484 5.08549 7.76517 5.01516C7.83549 4.94484 7.875 4.84946 7.875 4.75C7.875 4.65054 7.83549 4.55516 7.76517 4.48484C7.69484 4.41451 7.59946 4.375 7.5 4.375H4.875V1.75C4.875 1.65054 4.83549 1.55516 4.76516 1.48483C4.69484 1.41451 4.59946 1.375 4.5 1.375C4.40054 1.375 4.30516 1.41451 4.23484 1.48483C4.16451 1.55516 4.125 1.65054 4.125 1.75V4.375H1.5C1.40054 4.375 1.30516 4.41451 1.23483 4.48484C1.16451 4.55516 1.125 4.65054 1.125 4.75C1.125 4.84946 1.16451 4.94484 1.23483 5.01516C1.30516 5.08549 1.40054 5.125 1.5 5.125H4.125V7.75Z" fill="#212B36"/>
</svg>
