<svg xmlns="http://www.w3.org/2000/svg" width="7" height="25" viewBox="0 0 7 25" fill="none">
  <path d="M1.88024 7.34042C1.97303 7.30135 2.16838 7.27205 2.31977 7.27205H2.33404H2.58838L1.88024 7.34042ZM1.88024 7.34042C1.58721 7.46251 1.56279 7.57972 1.56279 8.74693V9.78717M1.88024 7.34042L1.56279 9.78717M2.84272 7.52638V7.27205V3.88273C2.84272 2.68875 2.84638 1.83208 2.8549 1.26091C2.85916 0.975029 2.86461 0.762794 2.8713 0.616358C2.87465 0.542875 2.8782 0.48864 2.88177 0.451145C2.88307 0.43749 2.88422 0.427998 2.88503 0.421883C2.89232 0.408304 2.90534 0.387836 2.92482 0.364281C2.94988 0.333961 2.97372 0.312944 2.98787 0.303209C3.05543 0.262903 3.09314 0.255102 3.11719 0.254395C3.1419 0.253668 3.18204 0.259558 3.25644 0.298613L3.25791 0.299387L3.27214 0.306728C3.30436 0.323353 3.31422 0.328442 3.32195 0.333719C3.33292 0.354546 3.35761 0.426638 3.375 0.656111C3.4085 1.09796 3.40849 1.95975 3.40846 3.72417L3.40846 3.87785V7.27205V7.52638H3.6628H3.93141C3.99242 7.52638 4.06608 7.53244 4.13448 7.54296C4.20711 7.55414 4.25475 7.56746 4.27224 7.57483L4.27312 7.57519C4.33805 7.60225 4.35308 7.61567 4.35847 7.62143L4.35857 7.62154C4.36119 7.62433 4.37624 7.64036 4.39134 7.70788C4.4264 7.86466 4.43405 8.15224 4.43405 8.75182V9.79694V9.93398L4.5485 10.0094L4.74837 10.141C4.86876 10.2206 5.03516 10.3693 5.19829 10.543C5.36088 10.7162 5.50353 10.8964 5.58318 11.0305L5.58378 11.0315C5.66149 11.161 5.78631 11.4279 5.85541 11.6163C5.90645 11.7626 5.9318 11.8526 5.94669 11.9614C5.96241 12.0761 5.96754 12.2192 5.96754 12.4732V12.4757L5.96755 12.4757C5.97228 12.9537 5.95369 13.0747 5.868 13.3361C5.61429 14.1015 5.04409 14.7599 4.38314 15.0595L4.37779 15.0619L4.37782 15.062C4.29888 15.1 4.22322 15.1456 4.1633 15.192C4.13401 15.2147 4.10164 15.2428 4.07393 15.2754C4.06005 15.2917 4.04288 15.3144 4.02816 15.3426C4.01444 15.3689 3.99451 15.416 3.99451 15.4767C3.99451 15.5046 3.99893 15.5416 4.00194 15.5662C4.00581 15.5978 4.01122 15.6374 4.01763 15.682C4.03048 15.7713 4.04797 15.8847 4.06672 16.0012C4.10368 16.2309 4.14762 16.4856 4.17164 16.5923L4.17176 16.5929L4.17187 16.5933C4.17846 16.6223 4.19406 16.691 4.24216 16.7539C4.29901 16.8282 4.3739 16.8625 4.43738 16.879C4.49376 16.8938 4.55584 16.8983 4.61313 16.9005C4.67359 16.9029 4.74915 16.9032 4.83978 16.9032C5.12972 16.9032 5.28947 16.9449 5.37067 16.9948C5.42648 17.0292 5.45963 17.0739 5.45963 17.186C5.45963 17.2872 5.42654 17.339 5.37135 17.377C5.30076 17.4256 5.16525 17.4689 4.93257 17.4689C4.8248 17.4689 4.72499 17.4731 4.64686 17.4916C4.60856 17.5007 4.54869 17.519 4.49452 17.5631C4.42823 17.6171 4.38521 17.6982 4.38521 17.7916C4.38521 17.8138 4.3886 17.8402 4.38994 17.8506L4.39018 17.8525C4.39239 17.8699 4.39552 17.8924 4.39936 17.919C4.40707 17.9724 4.41828 18.0462 4.4324 18.137C4.46067 18.3189 4.50103 18.5718 4.54955 18.872C4.64662 19.4724 4.77656 20.2633 4.90814 21.0565C5.03973 21.8497 5.17303 22.6455 5.27681 23.2557C5.32869 23.5607 5.37325 23.8197 5.40657 24.0088C5.43719 24.1828 5.46112 24.3148 5.47214 24.3586M2.84272 7.52638L5.71885 24.2967M2.84272 7.52638H2.58838H2.31977C2.25876 7.52638 2.1851 7.53244 2.1167 7.54296C2.04407 7.55414 1.99643 7.56746 1.97894 7.57483L1.97806 7.57519C1.91313 7.60225 1.89801 7.61571 1.89257 7.62151L1.89247 7.62161C1.88984 7.6244 1.87486 7.64032 1.8598 7.70743C1.82479 7.86351 1.81713 8.14977 1.81713 8.74693V9.78717V9.91361L1.71632 9.98994L1.37582 10.2477L1.22093 10.046M2.84272 7.52638L1.37515 10.2483M5.47214 24.3586C5.47251 24.36 5.47286 24.3614 5.4732 24.3626L5.71885 24.2967M5.47214 24.3586C5.47213 24.3585 5.47212 24.3585 5.47211 24.3584L5.71885 24.2967M5.47214 24.3586C5.48985 24.4294 5.49246 24.4596 5.49161 24.4793C5.4909 24.4958 5.48721 24.52 5.4648 24.5743M5.71885 24.2967C5.75792 24.453 5.75792 24.5312 5.69932 24.6728M5.4648 24.5743C5.46499 24.5739 5.46518 24.5735 5.46537 24.573L5.69932 24.6728M5.4648 24.5743C5.42249 24.6734 5.4197 24.6695 5.42097 24.6684C5.42109 24.6683 5.42115 24.6683 5.42116 24.6683C5.42119 24.6683 5.39216 24.6906 5.2504 24.7086C4.9578 24.7457 4.38738 24.7457 3.18431 24.7457L3.12559 24.7457C2.13719 24.7457 1.58702 24.7432 1.26849 24.7318C0.973157 24.7212 0.918061 24.7017 0.912224 24.6989C0.911358 24.6985 0.911576 24.6985 0.912254 24.6989L0.908324 24.6965L0.908304 24.6966C0.837653 24.6559 0.79155 24.5912 0.79155 24.4579C0.79155 24.461 0.791548 24.4627 0.791672 24.4627C0.792055 24.4628 0.793642 24.4459 0.800209 24.3985C0.807227 24.3478 0.817713 24.2766 0.831391 24.1867C0.858711 24.0071 0.898267 23.7559 0.947071 23.4512C1.04464 22.842 1.17884 22.0209 1.3253 21.1348M5.4648 24.5743C5.46463 24.5747 5.46447 24.5751 5.4643 24.5755L5.69932 24.6728M5.69932 24.6728L1.3253 21.1348M1.3253 21.1348C1.32528 21.1349 1.32526 21.1351 1.32524 21.1352L1.07442 21.093M1.3253 21.1348L0.781397 24.917C0.620234 24.8242 0.537211 24.6679 0.537211 24.4579C0.537211 24.3798 0.781397 22.8658 1.07442 21.093M1.3253 21.1348C1.47429 20.2482 1.60865 19.4347 1.70579 18.8372C1.75435 18.5385 1.79366 18.2935 1.82085 18.1202C1.83443 18.0337 1.84508 17.9645 1.85237 17.9153C1.85599 17.8908 1.85891 17.8704 1.86098 17.8549C1.86103 17.8546 1.86109 17.8541 1.86118 17.8534C1.86224 17.8458 1.86597 17.8187 1.86597 17.7965C1.86597 17.7309 1.84579 17.6488 1.77869 17.5812C1.72137 17.5234 1.65356 17.5012 1.61209 17.4909C1.53245 17.4713 1.42781 17.4689 1.31861 17.4689C1.08593 17.4689 0.95042 17.4256 0.879827 17.377C0.824636 17.339 0.79155 17.2872 0.79155 17.186C0.79155 17.0739 0.8247 17.0292 0.88051 16.9948C0.961712 16.9449 1.12146 16.9032 1.4114 16.9032C1.50203 16.9032 1.57759 16.9029 1.63805 16.9005C1.69534 16.8983 1.75742 16.8938 1.8138 16.879C1.87728 16.8625 1.95217 16.8282 2.00902 16.7539C2.05712 16.691 2.07272 16.6223 2.07931 16.5933L2.07941 16.5929L2.07954 16.5923C2.10355 16.4856 2.14749 16.2309 2.18446 16.0012C2.20321 15.8847 2.22069 15.7713 2.23355 15.682C2.23996 15.6374 2.24537 15.5978 2.24924 15.5662C2.25225 15.5416 2.25667 15.5046 2.25667 15.4767C2.25667 15.4077 2.23061 15.3562 2.21685 15.3324C2.2009 15.3047 2.18266 15.2825 2.16821 15.2666C2.13904 15.2345 2.10447 15.2054 2.07168 15.1807C2.00473 15.1303 1.91833 15.0782 1.82553 15.0332C0.893295 14.5781 0.254339 13.554 0.254339 12.4976C0.254339 11.6314 0.679744 10.7825 1.37515 10.2483M1.3253 21.1348C1.32532 21.1347 1.32534 21.1346 1.32536 21.1345L1.07442 21.093M1.07442 21.093C1.37233 19.3202 1.61163 17.8404 1.61163 17.7965C1.61163 17.7379 1.54814 17.7232 1.31861 17.7232C0.805816 17.7232 0.537211 17.5377 0.537211 17.186C0.537211 16.8149 0.805816 16.6488 1.4114 16.6488C1.77768 16.6488 1.80698 16.6439 1.8314 16.5365M1.56279 9.78717L1.22093 10.046M1.56279 9.78717L1.8314 16.5365M1.8314 16.5365C1.87535 16.3411 2.00233 15.55 2.00233 15.4767C2.00233 15.4376 1.87535 15.34 1.71419 15.2618C0.69349 14.7637 0 13.6502 0 12.4976C0 11.5502 0.463955 10.6272 1.22093 10.046M1.8314 16.5365L1.37515 10.2483M1.22093 10.046L1.37446 10.2488L1.37515 10.2483" fill="#F8F7F3" stroke="#F8F7F3" stroke-width="0.508678"/>
</svg>