<!-- public/search.svg -->
<svg xmlns="http://www.w3.org/2000/svg" width="13" height="13" viewBox="0 0 13 13" fill="none">
  <path d="M10.855 9.895L9.155 8.2C9.70349 7.50123 10.0011 6.63833 10 5.75C10 4.95888 9.76541 4.18552 9.32588 3.52772C8.88635 2.86992 8.26164 2.35723 7.53074 2.05448C6.79983 1.75173 5.99556 1.67252 5.21964 1.82686C4.44372 1.9812 3.73098 2.36216 3.17157 2.92157C2.61216 3.48098 2.2312 4.19372 2.07686 4.96964C1.92252 5.74556 2.00173 6.54983 2.30448 7.28074C2.60723 8.01164 3.11992 8.63635 3.77772 9.07588C4.43552 9.51541 5.20888 9.75 6 9.75C6.88833 9.75111 7.75123 9.45349 8.45 8.905L10.145 10.605C10.1915 10.6519 10.2468 10.6891 10.3077 10.7144C10.3686 10.7398 10.434 10.7529 10.5 10.7529C10.566 10.7529 10.6314 10.7398 10.6923 10.7144C10.7532 10.6891 10.8085 10.6519 10.855 10.605C10.9019 10.5585 10.9391 10.5032 10.9644 10.4423C10.9898 10.3814 11.0029 10.316 11.0029 10.25C11.0029 10.184 10.9898 10.1186 10.9644 10.0577C10.9391 9.99678 10.9019 9.94148 10.855 9.895ZM3 5.75C3 5.15666 3.17595 4.57664 3.50559 4.08329C3.83524 3.58994 4.30377 3.20543 4.85195 2.97836C5.40013 2.7513 6.00333 2.69189 6.58527 2.80765C7.16722 2.9234 7.70176 3.20912 8.12132 3.62868C8.54088 4.04824 8.8266 4.58279 8.94236 5.16473C9.05811 5.74667 8.9987 6.34987 8.77164 6.89805C8.54458 7.44623 8.16006 7.91477 7.66671 8.24441C7.17337 8.57405 6.59335 8.75 6 8.75C5.20435 8.75 4.44129 8.43393 3.87868 7.87132C3.31607 7.30871 3 6.54565 3 5.75Z" fill="#919EAB"/>
</svg>
